<svg xmlns="http://www.w3.org/2000/svg" viewBox="0 0 16 16" shape-rendering="crispEdges">
  <!-- Background -->
  <rect width="16" height="16" fill="#4a5c4a"/>
  <rect x="0" y="0" width="6" height="3" fill="#6b7c5e"/>
  <rect x="10" y="0" width="6" height="5" fill="#8a9a7e"/>
  <rect x="12" y="0" width="4" height="2" fill="#b0bca8"/>

  <!-- Hair -->
  <rect x="4" y="1" width="8" height="1" fill="#6b3a2a"/>
  <rect x="3" y="2" width="10" height="1" fill="#6b3a2a"/>
  <rect x="3" y="3" width="10" height="1" fill="#7a4530"/>
  <rect x="2" y="3" width="1" height="2" fill="#5c2e1e"/>

  <!-- Forehead -->
  <rect x="4" y="4" width="8" height="1" fill="#e8a882"/>
  <rect x="3" y="4" width="1" height="1" fill="#d49a76"/>

  <!-- Sunglasses -->
  <rect x="3" y="5" width="10" height="1" fill="#e8a882"/>
  <rect x="4" y="5" width="3" height="1" fill="#222"/>
  <rect x="5" y="5" width="1" height="1" fill="#445544"/>
  <rect x="8" y="5" width="3" height="1" fill="#222"/>
  <rect x="9" y="5" width="1" height="1" fill="#556655"/>
  <rect x="7" y="5" width="1" height="1" fill="#333"/>

  <!-- Cheeks / nose -->
  <rect x="3" y="6" width="10" height="1" fill="#e8a882"/>
  <rect x="7" y="6" width="1" height="1" fill="#d49a76"/>
  <rect x="4" y="6" width="1" height="1" fill="#daa080"/>
  <rect x="10" y="6" width="1" height="1" fill="#daa080"/>

  <!-- Beard + smile -->
  <rect x="4" y="7" width="8" height="1" fill="#7a4a32"/>
  <rect x="6" y="7" width="3" height="1" fill="#eeeedd"/>
  <rect x="3" y="7" width="1" height="1" fill="#e8a882"/>

  <!-- Lower beard / chin -->
  <rect x="4" y="8" width="8" height="1" fill="#7a4a32"/>
  <rect x="3" y="8" width="1" height="1" fill="#8a5a3a"/>
  <rect x="5" y="8" width="5" height="1" fill="#6b3a2a"/>

  <!-- Neck -->
  <rect x="5" y="9" width="5" height="1" fill="#d49a76"/>
  <rect x="6" y="9" width="3" height="1" fill="#e8a882"/>

  <!-- Shirt - blue-gray plaid -->
  <rect x="2" y="10" width="12" height="1" fill="#4a5568"/>
  <rect x="3" y="10" width="1" height="1" fill="#374151"/>
  <rect x="7" y="10" width="1" height="1" fill="#374151"/>
  <rect x="11" y="10" width="1" height="1" fill="#374151"/>

  <rect x="1" y="11" width="13" height="1" fill="#4a5568"/>
  <rect x="2" y="11" width="1" height="1" fill="#374151"/>
  <rect x="5" y="11" width="1" height="1" fill="#374151"/>
  <rect x="9" y="11" width="1" height="1" fill="#374151"/>
  <rect x="12" y="11" width="1" height="1" fill="#374151"/>

  <rect x="1" y="12" width="14" height="1" fill="#4a5568"/>
  <rect x="3" y="12" width="1" height="1" fill="#374151"/>
  <rect x="7" y="12" width="1" height="1" fill="#374151"/>
  <rect x="11" y="12" width="1" height="1" fill="#374151"/>

  <rect x="0" y="13" width="16" height="1" fill="#374151"/>
  <rect x="2" y="13" width="1" height="1" fill="#4a5568"/>
  <rect x="5" y="13" width="1" height="1" fill="#4a5568"/>
  <rect x="9" y="13" width="1" height="1" fill="#4a5568"/>
  <rect x="13" y="13" width="1" height="1" fill="#4a5568"/>

  <rect x="0" y="14" width="16" height="2" fill="#374151"/>
  <rect x="3" y="14" width="1" height="1" fill="#4a5568"/>
  <rect x="7" y="14" width="1" height="1" fill="#4a5568"/>
  <rect x="11" y="14" width="1" height="1" fill="#4a5568"/>
</svg>
